<?xml version="1.0" encoding="UTF-8"?><svg xmlns="http://www.w3.org/2000/svg" xmlns:xlink="http://www.w3.org/1999/xlink" contentScriptType="text/ecmascript" width="30" zoomAndPan="magnify" contentStyleType="text/css" viewBox="0 0 30 52.499999" height="52.499999" preserveAspectRatio="xMidYMid meet" version="1.0"><defs><clipPath id="clip-0"><path d="M 0.140625 0 L 29.859375 0 L 29.859375 52.003906 L 0.140625 52.003906 Z M 0.140625 0 " clip-rule="nonzero"/></clipPath><clipPath id="clip-1"><path d="M 5.601562 0 L 24 0 L 24 52 L 5.601562 52 Z M 5.601562 0 " clip-rule="nonzero"/></clipPath><clipPath id="clip-2"><path d="M 5.601562 0 L 24.171875 0 L 24.171875 52.003906 L 5.601562 52.003906 Z M 5.601562 0 " clip-rule="nonzero"/></clipPath></defs><g clip-path="url(#clip-0)"><path fill="rgb(100%, 100%, 100%)" d="M 0.140625 0 L 29.859375 0 L 29.859375 59.433594 L 0.140625 59.433594 Z M 0.140625 0 " fill-opacity="1" fill-rule="nonzero"/><path fill="rgb(100%, 100%, 100%)" d="M 0.140625 0 L 29.859375 0 L 29.859375 52.003906 L 0.140625 52.003906 Z M 0.140625 0 " fill-opacity="1" fill-rule="nonzero"/><path fill="rgb(100%, 100%, 100%)" d="M 0.140625 0 L 29.859375 0 L 29.859375 52.003906 L 0.140625 52.003906 Z M 0.140625 0 " fill-opacity="1" fill-rule="nonzero"/></g><g clip-path="url(#clip-1)"><path fill="rgb(7.449341%, 8.239746%, 8.628845%)" d="M 16.117188 28.648438 C 15.355469 28.859375 14.667969 29.339844 14.03125 30.070312 C 13.394531 30.8125 13.082031 31.632812 13.082031 32.515625 C 13.082031 33.070312 13.269531 33.699219 13.632812 34.367188 C 13.996094 35.046875 14.542969 35.539062 15.253906 35.855469 C 15.492188 35.902344 15.605469 36.03125 15.605469 36.207031 C 15.605469 36.269531 15.515625 36.332031 15.304688 36.382812 C 14.167969 36.09375 13.234375 35.476562 12.507812 34.554688 C 11.785156 33.625 11.410156 32.566406 11.386719 31.355469 C 11.421875 30.058594 11.808594 28.847656 12.546875 27.738281 C 13.296875 26.617188 14.257812 25.824219 15.429688 25.359375 L 14.570312 20.886719 C 12.644531 22.5 11.085938 24.175781 9.875 25.9375 C 8.664062 27.6875 8.039062 29.59375 7.992188 31.644531 C 8.015625 32.566406 8.203125 33.460938 8.550781 34.316406 C 8.902344 35.1875 9.425781 35.96875 10.125 36.683594 C 11.535156 38.109375 13.371094 38.851562 15.605469 38.925781 C 16.367188 38.878906 17.175781 38.738281 18.050781 38.511719 Z M 17.015625 28.519531 L 18.960938 38.210938 C 20.882812 37.429688 21.84375 35.726562 21.84375 33.132812 C 21.734375 32.261719 21.484375 31.480469 21.058594 30.789062 C 20.648438 30.082031 20.097656 29.527344 19.398438 29.125 C 18.699219 28.722656 17.914062 28.519531 17.015625 28.519531 Z M 14.457031 15.417969 C 14.867188 15.167969 15.34375 14.726562 15.855469 14.109375 C 16.367188 13.503906 16.863281 12.785156 17.339844 11.980469 C 17.828125 11.160156 18.214844 10.328125 18.5 9.484375 C 18.789062 8.652344 18.925781 7.859375 18.925781 7.128906 C 18.925781 6.8125 18.898438 6.5 18.835938 6.222656 C 18.789062 5.765625 18.648438 5.414062 18.414062 5.175781 C 18.175781 4.949219 17.875 4.824219 17.5 4.824219 C 16.753906 4.824219 16.078125 5.289062 15.480469 6.222656 C 15.019531 7.027344 14.632812 7.984375 14.355469 9.066406 C 14.070312 10.164062 13.90625 11.246094 13.882812 12.34375 C 13.945312 13.589844 14.144531 14.613281 14.457031 15.417969 Z M 13.667969 16.148438 C 13.109375 14.109375 12.796875 12.027344 12.734375 9.914062 C 12.746094 8.550781 12.882812 7.277344 13.144531 6.09375 C 13.394531 4.910156 13.757812 3.890625 14.230469 3.007812 C 14.695312 2.125 15.230469 1.457031 15.828125 1.003906 C 16.367188 0.601562 16.753906 0.386719 16.964844 0.386719 C 17.128906 0.386719 17.265625 0.449219 17.390625 0.5625 C 17.515625 0.675781 17.675781 0.867188 17.875 1.117188 C 19.363281 3.246094 20.109375 5.816406 20.109375 8.816406 C 20.109375 10.238281 19.921875 11.625 19.546875 13.011719 C 19.1875 14.386719 18.648438 15.695312 17.9375 16.917969 C 17.214844 18.152344 16.367188 19.222656 15.378906 20.144531 L 16.390625 25.105469 C 16.941406 25.042969 17.316406 24.992188 17.527344 24.992188 C 18.476562 24.992188 19.324219 25.195312 20.109375 25.597656 C 20.898438 26 21.570312 26.542969 22.121094 27.234375 C 22.667969 27.917969 23.09375 28.699219 23.394531 29.578125 C 23.679688 30.460938 23.84375 31.382812 23.84375 32.339844 C 23.84375 33.824219 23.457031 35.1875 22.683594 36.40625 C 21.90625 37.628906 20.746094 38.523438 19.1875 39.105469 C 19.285156 39.722656 19.460938 40.617188 19.722656 41.761719 C 19.972656 42.921875 20.160156 43.839844 20.285156 44.523438 C 20.410156 45.203125 20.460938 45.855469 20.460938 46.5 C 20.460938 47.496094 20.222656 48.375 19.75 49.15625 C 19.261719 49.9375 18.613281 50.542969 17.789062 50.972656 C 16.976562 51.402344 16.078125 51.613281 15.105469 51.613281 C 13.730469 51.613281 12.535156 51.222656 11.511719 50.457031 C 10.488281 49.675781 9.9375 48.628906 9.886719 47.292969 C 9.925781 46.699219 10.0625 46.148438 10.3125 45.617188 C 10.5625 45.089844 10.898438 44.660156 11.335938 44.332031 C 11.761719 43.992188 12.273438 43.816406 12.859375 43.777344 C 13.34375 43.777344 13.808594 43.917969 14.242188 44.179688 C 14.667969 44.457031 15.019531 44.824219 15.28125 45.289062 C 15.53125 45.757812 15.667969 46.273438 15.667969 46.828125 C 15.667969 47.570312 15.417969 48.199219 14.917969 48.71875 C 14.417969 49.234375 13.78125 49.5 13.019531 49.5 L 12.734375 49.5 C 13.21875 50.253906 14.019531 50.644531 15.128906 50.644531 C 15.691406 50.644531 16.265625 50.519531 16.839844 50.292969 C 17.425781 50.050781 17.914062 49.738281 18.324219 49.335938 C 18.738281 48.929688 19.011719 48.503906 19.125 48.050781 C 19.335938 47.53125 19.4375 46.816406 19.4375 45.921875 C 19.4375 45.316406 19.375 44.710938 19.261719 44.105469 C 19.148438 43.511719 18.976562 42.71875 18.738281 41.738281 C 18.5 40.765625 18.324219 40.011719 18.226562 39.496094 C 17.476562 39.683594 16.703125 39.785156 15.890625 39.785156 C 14.53125 39.785156 13.246094 39.507812 12.035156 38.941406 C 10.824219 38.375 9.761719 37.59375 8.839844 36.585938 C 7.929688 35.578125 7.21875 34.441406 6.707031 33.15625 C 6.207031 31.886719 5.945312 30.550781 5.929688 29.164062 C 5.980469 27.878906 6.21875 26.644531 6.667969 25.484375 C 7.117188 24.3125 7.691406 23.203125 8.402344 22.171875 C 9.113281 21.136719 9.851562 20.191406 10.613281 19.347656 C 11.386719 18.515625 12.398438 17.445312 13.667969 16.148438 Z M 13.667969 16.148438 " fill-opacity="1" fill-rule="evenodd"/></g><g clip-path="url(#clip-2)"><path stroke-linecap="butt" transform="matrix(0.0124817, 0, 0, 0.0125989, -8.871967, -70.26695)" fill="none" stroke-linejoin="miter" d="M 2002.069315 7851.117541 C 1941.042291 7867.860084 1885.96149 7905.995876 1834.949157 7963.974681 C 1783.936824 8022.883628 1758.900096 8087.993516 1758.900096 8158.064158 C 1758.900096 8202.090845 1773.922133 8252.008426 1803.027329 8305.026478 C 1832.132525 8358.974671 1875.946799 8398.040604 1932.905355 8423.154419 C 1951.99586 8426.874984 1961.071673 8437.106538 1961.071673 8451.058657 C 1961.071673 8456.01941 1953.873614 8460.980163 1936.973823 8465.010776 C 1845.902726 8442.067291 1771.105501 8393.079851 1712.895109 8319.908738 C 1654.997676 8246.117531 1624.953603 8162.09477 1623.075848 8065.980173 C 1625.89248 7963.04454 1656.875431 7866.929943 1716.0247 7778.87657 C 1776.112847 7689.893055 1853.100785 7626.953496 1946.988514 7590.057893 L 1878.137513 7235.053977 C 1723.848678 7363.103424 1598.977998 7496.113625 1501.960677 7635.944862 C 1404.943357 7774.845957 1354.869902 7926.148936 1351.114392 8088.923658 C 1352.992147 8162.09477 1368.014184 8233.095554 1395.867543 8300.995866 C 1424.033862 8370.136367 1465.970381 8432.145784 1521.99006 8488.884401 C 1634.968294 8602.051588 1782.05907 8660.960535 1961.071673 8666.85143 C 2022.098697 8663.130865 2086.881231 8651.96917 2156.984069 8633.986439 Z M 2074.049908 7840.885987 L 2229.903538 8610.112813 C 2383.879414 8548.103395 2460.867352 8412.922865 2460.867352 8207.051598 C 2452.104497 8137.911098 2432.075115 8075.90168 2397.962574 8021.023345 C 2365.101868 7964.904822 2320.974636 7920.878136 2264.954957 7888.943286 C 2208.935279 7857.008436 2146.0305 7840.885987 2074.049908 7840.885987 Z M 1869.061699 6800.988054 C 1901.922404 6781.14504 1940.103414 6746.109719 1981.101056 6697.122279 C 2022.098697 6649.064981 2061.844503 6592.016316 2100.025513 6528.146616 C 2139.1454 6463.036728 2170.128351 6396.996698 2192.974365 6330.026527 C 2216.133338 6263.986497 2227.086906 6201.046938 2227.086906 6143.068133 C 2227.086906 6117.954319 2224.896193 6093.150552 2219.888847 6071.137208 C 2216.133338 6034.861699 2204.86681 6006.957461 2186.089265 5988.044589 C 2166.99876 5970.061858 2142.900909 5960.140351 2112.856836 5960.140351 C 2053.081648 5960.140351 1998.939724 5997.035954 1951.056982 6071.137208 C 1914.127809 6135.006908 1883.144858 6210.968445 1860.924762 6296.851488 C 1838.078748 6383.97472 1824.934466 6469.857764 1823.056711 6556.980995 C 1828.064057 6655.886016 1844.024971 6737.118354 1869.061699 6800.988054 Z M 1805.843961 6858.966859 C 1761.09081 6697.122279 1736.054082 6531.867181 1731.046737 6364.131707 C 1731.985614 6255.925273 1742.939182 6154.849922 1763.907442 6060.905654 C 1783.936824 5966.961387 1813.04202 5886.039097 1850.910071 5815.968455 C 1888.152204 5745.897813 1931.0276 5692.879761 1978.910342 5656.914299 C 2022.098697 5624.979449 2053.081648 5607.926859 2069.981439 5607.926859 C 2083.125722 5607.926859 2094.07929 5612.887612 2104.093981 5621.878978 C 2114.108672 5630.870343 2126.939995 5646.062651 2142.900909 5665.905664 C 2262.138325 5834.881327 2321.913513 6038.892311 2321.913513 6277.008475 C 2321.913513 6389.865615 2306.891476 6499.932331 2276.847403 6609.999047 C 2248.055166 6719.135622 2204.86681 6823.001397 2147.908255 6920.046136 C 2090.010822 7018.021015 2022.098697 7102.973917 1942.920046 7176.14503 L 2023.976452 7569.904832 C 2068.103685 7564.944079 2098.147758 7560.913467 2115.047549 7560.913467 C 2191.09661 7560.913467 2259.008734 7577.035915 2321.913513 7608.970765 C 2385.131251 7640.905615 2438.960215 7684.002161 2483.087448 7738.880495 C 2526.901722 7793.138736 2561.014263 7855.148153 2585.112114 7924.908748 C 2607.958128 7994.97939 2621.10241 8068.150503 2621.10241 8144.112039 C 2621.10241 8261.929933 2590.11946 8370.136367 2528.153558 8466.871058 C 2465.874698 8563.915797 2372.925846 8634.91658 2248.055166 8681.113596 C 2255.879143 8730.101036 2269.962303 8801.101819 2290.930562 8891.945616 C 2310.959945 8984.029601 2325.981981 9056.890667 2335.996672 9111.148907 C 2346.011363 9165.0971 2350.079832 9216.874964 2350.079832 9268.032734 C 2350.079832 9347.094741 2330.989327 9416.855336 2293.121276 9478.864754 C 2254.001389 9540.874171 2202.050179 9588.93147 2136.015809 9623.03665 C 2070.920317 9657.141829 1998.939724 9673.884372 1921.012909 9673.884372 C 1810.851307 9673.884372 1715.085823 9642.879663 1633.090539 9582.110434 C 1551.095256 9520.101016 1506.968023 9437.008397 1502.899555 9330.972293 C 1506.029146 9283.845135 1516.982714 9240.128496 1537.012096 9197.962092 C 1557.041479 9156.105735 1583.955961 9122.000555 1619.00738 9095.9566 C 1653.119921 9068.982503 1694.117563 9055.030384 1741.061428 9051.929913 C 1779.868356 9051.929913 1817.110489 9063.091608 1851.848948 9083.864763 C 1885.96149 9105.878107 1914.127809 9135.022533 1935.096068 9171.918136 C 1955.125451 9209.123787 1966.079019 9250.050003 1966.079019 9294.076689 C 1966.079019 9352.985636 1946.049637 9402.903217 1905.990872 9444.13948 C 1865.932108 9485.065695 1814.919775 9506.148897 1753.892751 9506.148897 L 1731.046737 9506.148897 C 1769.853665 9565.987985 1834.01028 9596.992694 1922.890664 9596.992694 C 1967.956774 9596.992694 2013.961761 9587.071187 2059.966748 9569.088456 C 2106.910613 9549.865537 2146.0305 9525.06177 2178.891205 9493.12692 C 2212.06487 9460.882022 2233.972007 9427.08689 2243.04782 9391.121428 C 2259.947612 9349.885165 2268.084548 9293.146548 2268.084548 9222.145765 C 2268.084548 9174.088466 2263.077203 9126.031167 2254.001389 9077.973869 C 2244.925575 9030.846711 2231.155375 8967.907152 2212.06487 8890.085333 C 2192.974365 8812.883608 2178.891205 8753.04452 2171.067228 8712.118305 C 2110.979081 8727.000565 2049.01318 8735.061789 1983.917688 8735.061789 C 1875.007922 8735.061789 1772.044379 8713.048446 1675.027058 8668.091618 C 1578.009738 8623.13479 1492.884864 8561.125373 1419.026517 8481.133224 C 1346.107047 8401.141075 1289.148491 8310.917373 1248.150849 8208.911881 C 1208.092085 8108.146577 1187.123825 8002.110473 1185.871989 7892.043757 C 1189.940457 7790.038265 1209.030962 7692.063385 1245.021258 7599.9794 C 1281.011555 7506.965273 1327.016542 7418.9119 1383.975098 7337.059469 C 1440.933653 7254.896991 1500.082923 7179.865595 1561.109947 7112.895424 C 1623.075848 7046.855395 1704.132254 6961.902492 1805.843961 6858.966859 Z M 1805.843961 6858.966859 " stroke="rgb(7.449341%, 8.239746%, 8.628845%)" stroke-width="53.021999" stroke-opacity="1" stroke-miterlimit="4"/></g></svg>